<?xml version="1.0" encoding="utf-8"?>
<!-- Generator: Adobe Illustrator 22.1.0, SVG Export Plug-In . SVG Version: 6.00 Build 0)  -->
<!DOCTYPE svg PUBLIC "-//W3C//DTD SVG 1.1//EN" "http://www.w3.org/Graphics/SVG/1.1/DTD/svg11.dtd">
<svg version="1.1" id="Layer_1" xmlns="http://www.w3.org/2000/svg" xmlns:xlink="http://www.w3.org/1999/xlink" x="0px" y="0px"
	 viewBox="0 0 402.3 141.9" style="enable-background:new 0 0 402.3 141.9;" xml:space="preserve">
<style type="text/css">
	.st0{fill:#221F1F;}
</style>
<g>
	<path class="st0" d="M201.2,138.9c37.2,0,66-29.6,66-67.8S238.3,3,201.2,3c-37.2,0-66,29.9-66,68.1S164,138.9,201.2,138.9z
		 M201.2,19.5c26.7,0,49.1,23,49.1,51.6s-22.4,51.4-49.1,51.4c-26.7,0-49.1-22.8-49.1-51.4S174.4,19.5,201.2,19.5z"/>
	<path class="st0" d="M54.1,3c-12.3,0-52,4-52,55.7v75.4h18.1V58.7c0-24.9,12.2-39.2,33.9-39.2h0.2c21.8,0,34,14.3,34,39.2v75.4
		h18.1V58.7C106.5,7,66.6,3,54.1,3z"/>
	<path class="st0" d="M347.8,3c-12.3,0-52,4-52,55.7v75.4h18.1V58.7c0-24.9,12.2-39.2,33.9-39.2h0.2c21.8,0,34,14.3,34,39.2v75.4
		h18.1V58.7C400.1,7,360.3,3,347.8,3z"/>
</g>
</svg>
