<?xml version="1.0" encoding="utf-8"?>
<!-- Generator: Adobe Illustrator 16.0.4, SVG Export Plug-In . SVG Version: 6.00 Build 0)  -->
<!DOCTYPE svg PUBLIC "-//W3C//DTD SVG 1.1//EN" "http://www.w3.org/Graphics/SVG/1.1/DTD/svg11.dtd">
<svg version="1.1" id="Layer_1" xmlns="http://www.w3.org/2000/svg" xmlns:xlink="http://www.w3.org/1999/xlink" x="0px" y="0px"
	 width="828px" height="1472px" viewBox="0 0 828 1472" enable-background="new 0 0 828 1472" xml:space="preserve">
<image overflow="visible" width="828" height="1472" xlink:href="414_LANDING_STATE_02@2x.png"  transform="matrix(1 0 0 1 0.1357 0)">
</image>
<image overflow="visible" width="828" height="1472" xlink:href="414_LANDING_STATE_03@2x.png" >
</image>
<path fill="#FFFFFF" d="M414,736l-7.411-758.368H414h307.573"/>
<path fill="#FFFFFF" d="M414,736l-7.411-758.368"/>
<path fill="#FFFFFF" d="M414,736l-7.411-758.368H414l295.574-212.991l548.971,89.996l-205.488,676.466"/>
<image overflow="visible" width="828" height="1472" xlink:href="414_LANDING_STATE_02@2x.png"  transform="matrix(1 0 0 1 0.1357 0)">
</image>
<image overflow="visible" width="828" height="1472" xlink:href="414_LANDING_STATE_03@2x.png" >
</image>
<path fill="#FFFFFF" d="M414,736l-7.411-758.368H414h307.573"/>
<path fill="#FFFFFF" d="M414,736l-7.411-758.368"/>
<image overflow="visible" width="828" height="1472" xlink:href="414_LANDING_STATE_04@2x.png" >
</image>
<path fill="#FFFFFF" d="M414,736l-7.411-758.368H414l295.574-212.991l548.971,89.996l-148.651,1747.261"/>
<image overflow="visible" width="828" height="1472" xlink:href="414_LANDING_STATE_05@2x.png" >
</image>
<path fill="#FFFFFF" d="M414,736l-7.411-758.368H414l295.574-212.991l548.971,89.996l-88.646,2032.29L-57.224,1703.908"/>
<path fill="#FFFFFF" d="M414,736l-7.411-758.368H414l295.574-212.991l548.971,89.996l-88.646,2032.29L-57.224,1703.908
	l-306.031-807.081"/>
<path fill="#FFFFFF" d="M414,736l-7.411-758.368H414l295.574-212.991l548.971,89.996l-88.646,2032.29L-57.224,1703.908
	l-306.031-807.081c0,0-251.493-1812.179,769.843-1494.147"/>
</svg>
